<mxfile host="app.diagrams.net" modified="2021-06-17T06:49:04.013Z" agent="5.0 (Windows NT 10.0; Win64; x64) AppleWebKit/537.36 (KHTML, like Gecko) Chrome/86.0.4240.198 Safari/537.36" etag="ez8_KVlJAvP_njWzs5az" version="14.7.9" type="github">
  <diagram name="Page-1" id="2a216829-ef6e-dabb-86c1-c78162f3ba2b">
    <mxGraphModel dx="1662" dy="1894" grid="1" gridSize="10" guides="1" tooltips="1" connect="1" arrows="1" fold="1" page="1" pageScale="1" pageWidth="850" pageHeight="1100" background="none" math="0" shadow="0">
      <root>
        <mxCell id="0" />
        <mxCell id="1" parent="0" />
        <mxCell id="tXZHfQQ4HI5e9DIyocW6-9" style="edgeStyle=orthogonalEdgeStyle;rounded=0;orthogonalLoop=1;jettySize=auto;html=1;entryX=0;entryY=0.5;entryDx=0;entryDy=0;" parent="1" source="tXZHfQQ4HI5e9DIyocW6-2" target="tXZHfQQ4HI5e9DIyocW6-8" edge="1">
          <mxGeometry relative="1" as="geometry">
            <Array as="points">
              <mxPoint x="120" y="320" />
            </Array>
          </mxGeometry>
        </mxCell>
        <mxCell id="tXZHfQQ4HI5e9DIyocW6-15" style="edgeStyle=orthogonalEdgeStyle;rounded=0;orthogonalLoop=1;jettySize=auto;html=1;" parent="1" source="tXZHfQQ4HI5e9DIyocW6-2" edge="1">
          <mxGeometry relative="1" as="geometry">
            <mxPoint x="120" y="420" as="targetPoint" />
          </mxGeometry>
        </mxCell>
        <mxCell id="tXZHfQQ4HI5e9DIyocW6-22" style="edgeStyle=orthogonalEdgeStyle;rounded=0;orthogonalLoop=1;jettySize=auto;html=1;entryX=0;entryY=0.5;entryDx=0;entryDy=0;" parent="1" target="tXZHfQQ4HI5e9DIyocW6-16" edge="1">
          <mxGeometry relative="1" as="geometry">
            <mxPoint x="40" y="190" as="sourcePoint" />
            <Array as="points">
              <mxPoint x="20" y="190" />
              <mxPoint x="20" y="300" />
              <mxPoint x="40" y="300" />
              <mxPoint x="40" y="450" />
            </Array>
          </mxGeometry>
        </mxCell>
        <mxCell id="tXZHfQQ4HI5e9DIyocW6-24" style="edgeStyle=orthogonalEdgeStyle;rounded=0;orthogonalLoop=1;jettySize=auto;html=1;" parent="1" source="tXZHfQQ4HI5e9DIyocW6-2" edge="1">
          <mxGeometry relative="1" as="geometry">
            <mxPoint x="600" y="190" as="targetPoint" />
          </mxGeometry>
        </mxCell>
        <mxCell id="tXZHfQQ4HI5e9DIyocW6-2" value="&lt;pre style=&quot;background-color: #282c34 ; color: #bbbbbb ; font-family: &amp;#34;jetbrains mono&amp;#34; , monospace ; font-size: 10.5pt&quot;&gt;&lt;span style=&quot;color: #61afef&quot;&gt;push.taskAssign&lt;/span&gt;&lt;span style=&quot;color: #d19a66&quot;&gt;(taskInfoId)&lt;/span&gt;&lt;/pre&gt;" style="shape=step;perimeter=stepPerimeter;whiteSpace=wrap;html=1;fixedSize=1;" parent="1" vertex="1">
          <mxGeometry x="60" y="150" width="120" height="80" as="geometry" />
        </mxCell>
        <mxCell id="tXZHfQQ4HI5e9DIyocW6-3" value="分解完成（主流程结束），任务下达" style="text;html=1;strokeColor=none;fillColor=none;align=center;verticalAlign=middle;whiteSpace=wrap;rounded=0;" parent="1" vertex="1">
          <mxGeometry x="30" y="120" width="160" height="20" as="geometry" />
        </mxCell>
        <mxCell id="tXZHfQQ4HI5e9DIyocW6-12" value="" style="edgeStyle=orthogonalEdgeStyle;rounded=0;orthogonalLoop=1;jettySize=auto;html=1;" parent="1" source="tXZHfQQ4HI5e9DIyocW6-8" target="tXZHfQQ4HI5e9DIyocW6-11" edge="1">
          <mxGeometry relative="1" as="geometry" />
        </mxCell>
        <mxCell id="tXZHfQQ4HI5e9DIyocW6-8" value="&lt;pre style=&quot;background-color: #282c34 ; color: #bbbbbb ; font-family: &amp;#34;jetbrains mono&amp;#34; , monospace ; font-size: 10.5pt&quot;&gt;&lt;span style=&quot;color: #61afef&quot;&gt;getById&lt;/span&gt;&lt;/pre&gt;" style="triangle;whiteSpace=wrap;html=1;" parent="1" vertex="1">
          <mxGeometry x="210" y="280" width="60" height="80" as="geometry" />
        </mxCell>
        <mxCell id="tXZHfQQ4HI5e9DIyocW6-10" value="当前登录用户组织id" style="text;html=1;strokeColor=none;fillColor=none;align=center;verticalAlign=middle;whiteSpace=wrap;rounded=0;" parent="1" vertex="1">
          <mxGeometry x="130" y="290" width="70" height="20" as="geometry" />
        </mxCell>
        <mxCell id="tXZHfQQ4HI5e9DIyocW6-13" style="edgeStyle=orthogonalEdgeStyle;rounded=0;orthogonalLoop=1;jettySize=auto;html=1;" parent="1" source="tXZHfQQ4HI5e9DIyocW6-11" edge="1">
          <mxGeometry relative="1" as="geometry">
            <mxPoint x="380" y="410" as="targetPoint" />
          </mxGeometry>
        </mxCell>
        <mxCell id="tXZHfQQ4HI5e9DIyocW6-11" value="&lt;pre style=&quot;background-color: #282c34 ; color: #bbbbbb ; font-family: &amp;#34;jetbrains mono&amp;#34; , monospace ; font-size: 10.5pt&quot;&gt;&lt;span style=&quot;color: #89ca78&quot;&gt;t_sys_organization&lt;/span&gt;&lt;/pre&gt;" style="shape=cylinder;whiteSpace=wrap;html=1;boundedLbl=1;backgroundOutline=1;" parent="1" vertex="1">
          <mxGeometry x="350" y="280" width="60" height="80" as="geometry" />
        </mxCell>
        <mxCell id="tXZHfQQ4HI5e9DIyocW6-17" style="edgeStyle=orthogonalEdgeStyle;rounded=0;orthogonalLoop=1;jettySize=auto;html=1;" parent="1" source="tXZHfQQ4HI5e9DIyocW6-14" edge="1">
          <mxGeometry relative="1" as="geometry">
            <mxPoint x="200" y="450" as="targetPoint" />
          </mxGeometry>
        </mxCell>
        <mxCell id="tXZHfQQ4HI5e9DIyocW6-14" value="&lt;pre style=&quot;background-color: #282c34 ; color: #bbbbbb ; font-family: &amp;#34;jetbrains mono&amp;#34; , monospace ; font-size: 10.5pt&quot;&gt;&lt;span style=&quot;color: #e5c07b&quot;&gt;SysOrganization&lt;/span&gt;&lt;/pre&gt;" style="ellipse;whiteSpace=wrap;html=1;" parent="1" vertex="1">
          <mxGeometry x="330" y="410" width="120" height="80" as="geometry" />
        </mxCell>
        <mxCell id="tXZHfQQ4HI5e9DIyocW6-16" value="&lt;pre style=&quot;background-color: #282c34 ; color: #bbbbbb ; font-family: &amp;#34;jetbrains mono&amp;#34; , monospace ; font-size: 10.5pt&quot;&gt;&lt;span style=&quot;color: #e5c07b&quot;&gt;TaskAssignCriteria&lt;/span&gt;&lt;/pre&gt;" style="ellipse;whiteSpace=wrap;html=1;" parent="1" vertex="1">
          <mxGeometry x="70" y="410" width="120" height="80" as="geometry" />
        </mxCell>
        <mxCell id="tXZHfQQ4HI5e9DIyocW6-18" value="&lt;pre style=&quot;background-color: #282c34 ; color: #bbbbbb ; font-family: &amp;#34;jetbrains mono&amp;#34; , monospace ; font-size: 10.5pt&quot;&gt;&lt;pre style=&quot;font-family: &amp;#34;jetbrains mono&amp;#34; , monospace ; font-size: 10.5pt&quot;&gt;&lt;span style=&quot;color: #61afef&quot;&gt;getAreaCode&lt;/span&gt;&lt;/pre&gt;&lt;/pre&gt;" style="text;html=1;strokeColor=none;fillColor=none;align=center;verticalAlign=middle;whiteSpace=wrap;rounded=0;" parent="1" vertex="1">
          <mxGeometry x="240" y="410" width="40" height="20" as="geometry" />
        </mxCell>
        <mxCell id="tXZHfQQ4HI5e9DIyocW6-20" style="edgeStyle=orthogonalEdgeStyle;rounded=0;orthogonalLoop=1;jettySize=auto;html=1;entryX=0.432;entryY=1.039;entryDx=0;entryDy=0;entryPerimeter=0;" parent="1" source="tXZHfQQ4HI5e9DIyocW6-19" target="tXZHfQQ4HI5e9DIyocW6-16" edge="1">
          <mxGeometry relative="1" as="geometry" />
        </mxCell>
        <mxCell id="tXZHfQQ4HI5e9DIyocW6-19" value="当前用户用户" style="ellipse;whiteSpace=wrap;html=1;" parent="1" vertex="1">
          <mxGeometry x="320" y="570" width="120" height="80" as="geometry" />
        </mxCell>
        <mxCell id="tXZHfQQ4HI5e9DIyocW6-21" value="&lt;pre style=&quot;background-color: #282c34 ; color: #bbbbbb ; font-family: &amp;#34;jetbrains mono&amp;#34; , monospace ; font-size: 10.5pt&quot;&gt;&lt;span style=&quot;color: #61afef&quot;&gt;OrgId&lt;/span&gt;&lt;/pre&gt;&lt;pre style=&quot;background-color: #282c34 ; color: #bbbbbb ; font-family: &amp;#34;jetbrains mono&amp;#34; , monospace ; font-size: 10.5pt&quot;&gt;&lt;pre style=&quot;font-family: &amp;#34;jetbrains mono&amp;#34; , monospace ; font-size: 10.5pt&quot;&gt;&lt;span style=&quot;color: #61afef&quot;&gt;UserId=id&lt;/span&gt;&lt;/pre&gt;&lt;/pre&gt;" style="text;html=1;strokeColor=none;fillColor=none;align=center;verticalAlign=middle;whiteSpace=wrap;rounded=0;" parent="1" vertex="1">
          <mxGeometry x="229" y="561" width="40" height="19" as="geometry" />
        </mxCell>
        <mxCell id="tXZHfQQ4HI5e9DIyocW6-23" value="taskInfoId" style="text;html=1;strokeColor=none;fillColor=none;align=center;verticalAlign=middle;whiteSpace=wrap;rounded=0;" parent="1" vertex="1">
          <mxGeometry x="50" y="330" width="40" height="20" as="geometry" />
        </mxCell>
        <mxCell id="tXZHfQQ4HI5e9DIyocW6-27" value="" style="edgeStyle=orthogonalEdgeStyle;rounded=0;orthogonalLoop=1;jettySize=auto;html=1;" parent="1" source="tXZHfQQ4HI5e9DIyocW6-25" target="tXZHfQQ4HI5e9DIyocW6-26" edge="1">
          <mxGeometry relative="1" as="geometry" />
        </mxCell>
        <mxCell id="tXZHfQQ4HI5e9DIyocW6-25" value="&lt;pre style=&quot;background-color: #282c34 ; color: #bbbbbb ; font-family: &amp;#34;jetbrains mono&amp;#34; , monospace ; font-size: 10.5pt&quot;&gt;&lt;span style=&quot;color: #ef596f&quot;&gt;taskReformKeyService&lt;/span&gt;&lt;/pre&gt;" style="shape=step;perimeter=stepPerimeter;whiteSpace=wrap;html=1;fixedSize=1;" parent="1" vertex="1">
          <mxGeometry x="600" y="150" width="120" height="80" as="geometry" />
        </mxCell>
        <mxCell id="tXZHfQQ4HI5e9DIyocW6-30" style="edgeStyle=orthogonalEdgeStyle;rounded=0;orthogonalLoop=1;jettySize=auto;html=1;entryX=0.5;entryY=1;entryDx=0;entryDy=0;" parent="1" source="tXZHfQQ4HI5e9DIyocW6-26" target="tXZHfQQ4HI5e9DIyocW6-31" edge="1">
          <mxGeometry relative="1" as="geometry">
            <mxPoint x="860" y="190" as="targetPoint" />
          </mxGeometry>
        </mxCell>
        <mxCell id="tXZHfQQ4HI5e9DIyocW6-26" value="&lt;pre style=&quot;background-color: #282c34 ; color: #bbbbbb ; font-family: &amp;#34;jetbrains mono&amp;#34; , monospace ; font-size: 10.5pt&quot;&gt;&lt;span style=&quot;color: #89ca78&quot;&gt;t_task_reform_key&lt;/span&gt;&lt;/pre&gt;" style="shape=cylinder;whiteSpace=wrap;html=1;boundedLbl=1;backgroundOutline=1;" parent="1" vertex="1">
          <mxGeometry x="630" y="310" width="60" height="80" as="geometry" />
        </mxCell>
        <mxCell id="tXZHfQQ4HI5e9DIyocW6-29" value="" style="edgeStyle=orthogonalEdgeStyle;rounded=0;orthogonalLoop=1;jettySize=auto;html=1;" parent="1" source="tXZHfQQ4HI5e9DIyocW6-28" target="tXZHfQQ4HI5e9DIyocW6-25" edge="1">
          <mxGeometry relative="1" as="geometry" />
        </mxCell>
        <mxCell id="tXZHfQQ4HI5e9DIyocW6-28" value="&lt;pre style=&quot;background-color: #282c34 ; color: #bbbbbb ; font-family: &amp;#34;jetbrains mono&amp;#34; , monospace ; font-size: 10.5pt&quot;&gt;.&lt;span style=&quot;color: #61afef&quot;&gt;lambdaQuery&lt;/span&gt;&lt;span style=&quot;color: #d19a66&quot;&gt;()&lt;/span&gt;.&lt;/pre&gt;&lt;pre style=&quot;background-color: #282c34 ; color: #bbbbbb ; font-family: &amp;#34;jetbrains mono&amp;#34; , monospace ; font-size: 10.5pt&quot;&gt;&lt;span style=&quot;color: #61afef&quot;&gt;eq&lt;/span&gt;&lt;span style=&quot;color: #d19a66&quot;&gt;(&lt;/span&gt;&lt;span style=&quot;color: #e5c07b&quot;&gt;TaskReformKey&lt;/span&gt;::&lt;span style=&quot;color: #61afef&quot;&gt;getTaskInfoId&lt;/span&gt;&lt;/pre&gt;&lt;pre style=&quot;background-color: #282c34 ; color: #bbbbbb ; font-family: &amp;#34;jetbrains mono&amp;#34; , monospace ; font-size: 10.5pt&quot;&gt;, &lt;span style=&quot;color: #d19a66&quot;&gt;taskInfoId)&lt;/span&gt;.&lt;span style=&quot;color: #61afef&quot;&gt;list&lt;/span&gt;&lt;span style=&quot;color: #d19a66&quot;&gt;()&lt;/span&gt;&lt;/pre&gt;" style="text;html=1;strokeColor=none;fillColor=none;align=center;verticalAlign=middle;whiteSpace=wrap;rounded=0;" parent="1" vertex="1">
          <mxGeometry x="650" y="260" width="40" height="20" as="geometry" />
        </mxCell>
        <mxCell id="tXZHfQQ4HI5e9DIyocW6-34" style="edgeStyle=orthogonalEdgeStyle;rounded=0;orthogonalLoop=1;jettySize=auto;html=1;entryX=0;entryY=0.5;entryDx=0;entryDy=0;" parent="1" source="tXZHfQQ4HI5e9DIyocW6-31" target="tXZHfQQ4HI5e9DIyocW6-33" edge="1">
          <mxGeometry relative="1" as="geometry" />
        </mxCell>
        <mxCell id="tXZHfQQ4HI5e9DIyocW6-31" value="&lt;pre style=&quot;background-color: #282c34 ; color: #bbbbbb ; font-family: &amp;#34;jetbrains mono&amp;#34; , monospace ; font-size: 10.5pt&quot;&gt;&lt;span style=&quot;color: #e5c07b&quot;&gt;List&lt;/span&gt;&lt;span style=&quot;color: #d19a66&quot;&gt;&amp;lt;&lt;/span&gt;&lt;span style=&quot;color: #e5c07b&quot;&gt;TaskReformKey&lt;/span&gt;&lt;span style=&quot;color: #d19a66&quot;&gt;&amp;gt;&lt;/span&gt;&lt;/pre&gt;" style="ellipse;whiteSpace=wrap;html=1;" parent="1" vertex="1">
          <mxGeometry x="840" y="140" width="120" height="80" as="geometry" />
        </mxCell>
        <mxCell id="tXZHfQQ4HI5e9DIyocW6-32" value="获取任务扩展信息" style="text;html=1;strokeColor=none;fillColor=none;align=center;verticalAlign=middle;whiteSpace=wrap;rounded=0;" parent="1" vertex="1">
          <mxGeometry x="630" y="100" width="40" height="20" as="geometry" />
        </mxCell>
        <mxCell id="tXZHfQQ4HI5e9DIyocW6-36" value="" style="edgeStyle=orthogonalEdgeStyle;rounded=0;orthogonalLoop=1;jettySize=auto;html=1;" parent="1" source="tXZHfQQ4HI5e9DIyocW6-33" target="tXZHfQQ4HI5e9DIyocW6-35" edge="1">
          <mxGeometry relative="1" as="geometry" />
        </mxCell>
        <mxCell id="tXZHfQQ4HI5e9DIyocW6-88" style="edgeStyle=orthogonalEdgeStyle;rounded=0;orthogonalLoop=1;jettySize=auto;html=1;" parent="1" source="tXZHfQQ4HI5e9DIyocW6-33" edge="1">
          <mxGeometry relative="1" as="geometry">
            <mxPoint x="1080" y="430" as="targetPoint" />
          </mxGeometry>
        </mxCell>
        <mxCell id="tXZHfQQ4HI5e9DIyocW6-33" value="取第一个" style="rhombus;whiteSpace=wrap;html=1;" parent="1" vertex="1">
          <mxGeometry x="1040" y="140" width="80" height="80" as="geometry" />
        </mxCell>
        <mxCell id="tXZHfQQ4HI5e9DIyocW6-38" value="" style="edgeStyle=orthogonalEdgeStyle;rounded=0;orthogonalLoop=1;jettySize=auto;html=1;" parent="1" source="tXZHfQQ4HI5e9DIyocW6-35" target="tXZHfQQ4HI5e9DIyocW6-37" edge="1">
          <mxGeometry relative="1" as="geometry" />
        </mxCell>
        <mxCell id="tXZHfQQ4HI5e9DIyocW6-35" value="&lt;pre style=&quot;background-color: #282c34 ; color: #bbbbbb ; font-family: &amp;#34;jetbrains mono&amp;#34; , monospace ; font-size: 10.5pt&quot;&gt;&lt;span style=&quot;color: #ef596f&quot;&gt;taskReformKeyOrgService&lt;/span&gt;&lt;/pre&gt;" style="shape=step;perimeter=stepPerimeter;whiteSpace=wrap;html=1;fixedSize=1;" parent="1" vertex="1">
          <mxGeometry x="1180" y="140" width="120" height="80" as="geometry" />
        </mxCell>
        <mxCell id="tXZHfQQ4HI5e9DIyocW6-40" style="edgeStyle=orthogonalEdgeStyle;rounded=0;orthogonalLoop=1;jettySize=auto;html=1;entryX=0.5;entryY=1;entryDx=0;entryDy=0;entryPerimeter=0;" parent="1" source="tXZHfQQ4HI5e9DIyocW6-37" target="tXZHfQQ4HI5e9DIyocW6-41" edge="1">
          <mxGeometry relative="1" as="geometry">
            <mxPoint x="1500" y="180" as="targetPoint" />
          </mxGeometry>
        </mxCell>
        <mxCell id="tXZHfQQ4HI5e9DIyocW6-37" value="&lt;pre style=&quot;background-color: #282c34 ; color: #bbbbbb ; font-family: &amp;#34;jetbrains mono&amp;#34; , monospace ; font-size: 10.5pt&quot;&gt;&lt;span style=&quot;color: #89ca78&quot;&gt;t_task_reform_key_org&lt;/span&gt;&lt;/pre&gt;" style="shape=cylinder;whiteSpace=wrap;html=1;boundedLbl=1;backgroundOutline=1;" parent="1" vertex="1">
          <mxGeometry x="1210" y="300" width="60" height="80" as="geometry" />
        </mxCell>
        <mxCell id="tXZHfQQ4HI5e9DIyocW6-39" value="&lt;pre style=&quot;background-color: #282c34 ; color: #bbbbbb ; font-family: &amp;#34;jetbrains mono&amp;#34; , monospace ; font-size: 10.5pt&quot;&gt;.&lt;span style=&quot;color: #61afef&quot;&gt;lambdaQuery&lt;/span&gt;&lt;span style=&quot;color: #d19a66&quot;&gt;()&lt;br&gt;&lt;/span&gt;&lt;span style=&quot;color: #d19a66&quot;&gt;        &lt;/span&gt;.&lt;span style=&quot;color: #61afef&quot;&gt;eq&lt;/span&gt;&lt;span style=&quot;color: #d19a66&quot;&gt;(&lt;/span&gt;&lt;span style=&quot;color: #e5c07b&quot;&gt;TaskReformKeyOrg&lt;/span&gt;::&lt;span style=&quot;color: #61afef&quot;&gt;getTaskInfoId&lt;/span&gt;, &lt;span style=&quot;color: #d19a66&quot;&gt;taskInfoId)&lt;br&gt;&lt;/span&gt;&lt;span style=&quot;color: #d19a66&quot;&gt;        &lt;/span&gt;.&lt;span style=&quot;color: #61afef&quot;&gt;orderByAsc&lt;/span&gt;&lt;span style=&quot;color: #d19a66&quot;&gt;(&lt;/span&gt;&lt;span style=&quot;color: #e5c07b&quot;&gt;TaskReformKeyOrg&lt;/span&gt;::&lt;span style=&quot;color: #61afef&quot;&gt;getOrgType&lt;/span&gt;&lt;span style=&quot;color: #d19a66&quot;&gt;)&lt;br&gt;&lt;/span&gt;&lt;span style=&quot;color: #d19a66&quot;&gt;        &lt;/span&gt;.&lt;span style=&quot;color: #61afef&quot;&gt;orderByAsc&lt;/span&gt;&lt;span style=&quot;color: #d19a66&quot;&gt;(&lt;/span&gt;&lt;span style=&quot;color: #e5c07b&quot;&gt;TaskReformKeyOrg&lt;/span&gt;::&lt;span style=&quot;color: #61afef&quot;&gt;getSort&lt;/span&gt;&lt;span style=&quot;color: #d19a66&quot;&gt;)&lt;/span&gt;.&lt;span style=&quot;color: #61afef&quot;&gt;list&lt;/span&gt;&lt;span style=&quot;color: #d19a66&quot;&gt;()&lt;/span&gt;;&lt;/pre&gt;" style="text;html=1;strokeColor=none;fillColor=none;align=center;verticalAlign=middle;whiteSpace=wrap;rounded=0;" parent="1" vertex="1">
          <mxGeometry x="1230" y="250" width="40" height="20" as="geometry" />
        </mxCell>
        <mxCell id="tXZHfQQ4HI5e9DIyocW6-64" style="edgeStyle=orthogonalEdgeStyle;rounded=0;orthogonalLoop=1;jettySize=auto;html=1;exitX=1;exitY=0;exitDx=0;exitDy=0;entryX=0.5;entryY=0;entryDx=0;entryDy=0;curved=1;" parent="1" source="tXZHfQQ4HI5e9DIyocW6-41" target="tXZHfQQ4HI5e9DIyocW6-65" edge="1">
          <mxGeometry relative="1" as="geometry">
            <mxPoint x="2260" y="100" as="targetPoint" />
            <Array as="points">
              <mxPoint x="1542" y="30" />
              <mxPoint x="2320" y="30" />
            </Array>
          </mxGeometry>
        </mxCell>
        <mxCell id="tXZHfQQ4HI5e9DIyocW6-69" style="edgeStyle=orthogonalEdgeStyle;curved=1;rounded=0;orthogonalLoop=1;jettySize=auto;html=1;exitX=1;exitY=1;exitDx=0;exitDy=0;entryX=0;entryY=0.5;entryDx=0;entryDy=0;" parent="1" source="tXZHfQQ4HI5e9DIyocW6-41" target="tXZHfQQ4HI5e9DIyocW6-68" edge="1">
          <mxGeometry relative="1" as="geometry">
            <Array as="points">
              <mxPoint x="1542" y="420" />
              <mxPoint x="2140" y="420" />
            </Array>
          </mxGeometry>
        </mxCell>
        <mxCell id="tXZHfQQ4HI5e9DIyocW6-41" value="&lt;pre style=&quot;background-color: #282c34 ; color: #bbbbbb ; font-family: &amp;#34;jetbrains mono&amp;#34; , monospace ; font-size: 10.5pt&quot;&gt;&lt;span style=&quot;color: #e5c07b&quot;&gt;List&lt;/span&gt;&lt;span style=&quot;color: #d19a66&quot;&gt;&amp;lt;&lt;/span&gt;&lt;span style=&quot;color: #e5c07b&quot;&gt;TaskReformKeyOrg&lt;/span&gt;&lt;span style=&quot;color: #d19a66&quot;&gt;&amp;gt;&lt;/span&gt;&lt;/pre&gt;" style="ellipse;whiteSpace=wrap;html=1;" parent="1" vertex="1">
          <mxGeometry x="1440" y="140" width="120" height="80" as="geometry" />
        </mxCell>
        <mxCell id="tXZHfQQ4HI5e9DIyocW6-42" value="不能为null" style="text;html=1;strokeColor=none;fillColor=none;align=center;verticalAlign=middle;whiteSpace=wrap;rounded=0;" parent="1" vertex="1">
          <mxGeometry x="880" y="100" width="40" height="20" as="geometry" />
        </mxCell>
        <mxCell id="tXZHfQQ4HI5e9DIyocW6-45" value="不能为null" style="text;html=1;strokeColor=none;fillColor=none;align=center;verticalAlign=middle;whiteSpace=wrap;rounded=0;" parent="1" vertex="1">
          <mxGeometry x="1480" y="100" width="40" height="20" as="geometry" />
        </mxCell>
        <mxCell id="tXZHfQQ4HI5e9DIyocW6-49" value="" style="edgeStyle=orthogonalEdgeStyle;rounded=0;orthogonalLoop=1;jettySize=auto;html=1;" parent="1" source="tXZHfQQ4HI5e9DIyocW6-47" target="tXZHfQQ4HI5e9DIyocW6-48" edge="1">
          <mxGeometry relative="1" as="geometry" />
        </mxCell>
        <mxCell id="tXZHfQQ4HI5e9DIyocW6-47" value="&lt;pre style=&quot;background-color: #282c34 ; color: #bbbbbb ; font-family: &amp;#34;jetbrains mono&amp;#34; , monospace ; font-size: 10.5pt&quot;&gt;&lt;span style=&quot;color: #ef596f&quot;&gt;taskTopicProcessService&lt;/span&gt;&lt;/pre&gt;" style="shape=step;perimeter=stepPerimeter;whiteSpace=wrap;html=1;fixedSize=1;" parent="1" vertex="1">
          <mxGeometry x="1670" y="140" width="120" height="80" as="geometry" />
        </mxCell>
        <mxCell id="tXZHfQQ4HI5e9DIyocW6-51" style="edgeStyle=orthogonalEdgeStyle;rounded=0;orthogonalLoop=1;jettySize=auto;html=1;" parent="1" source="tXZHfQQ4HI5e9DIyocW6-48" edge="1">
          <mxGeometry relative="1" as="geometry">
            <mxPoint x="1990" y="360" as="targetPoint" />
          </mxGeometry>
        </mxCell>
        <mxCell id="tXZHfQQ4HI5e9DIyocW6-48" value="&lt;pre style=&quot;background-color: #282c34 ; color: #bbbbbb ; font-family: &amp;#34;jetbrains mono&amp;#34; , monospace ; font-size: 10.5pt&quot;&gt;&lt;span style=&quot;color: #89ca78&quot;&gt;t_task_topic_process&lt;/span&gt;&lt;/pre&gt;" style="shape=cylinder;whiteSpace=wrap;html=1;boundedLbl=1;backgroundOutline=1;" parent="1" vertex="1">
          <mxGeometry x="1700" y="300" width="60" height="80" as="geometry" />
        </mxCell>
        <mxCell id="tXZHfQQ4HI5e9DIyocW6-50" value="&lt;pre style=&quot;background-color: #282c34 ; color: #bbbbbb ; font-family: &amp;quot;jetbrains mono&amp;quot; , monospace ; font-size: 10.5pt&quot;&gt;&lt;span style=&quot;color: #61afef&quot;&gt;lambdaQuery&lt;/span&gt;&lt;span style=&quot;color: #d19a66&quot;&gt;()&lt;br&gt;&lt;/span&gt;&lt;span style=&quot;color: #d19a66&quot;&gt;        &lt;/span&gt;.&lt;span style=&quot;color: #61afef&quot;&gt;eq&lt;/span&gt;&lt;span style=&quot;color: #d19a66&quot;&gt;(&lt;/span&gt;&lt;span style=&quot;color: #e5c07b&quot;&gt;TaskTopicProcess&lt;/span&gt;::&lt;span style=&quot;color: #61afef&quot;&gt;getTopicId&lt;/span&gt;, taskReformKey.&lt;span style=&quot;color: #61afef&quot;&gt;getTopicId&lt;/span&gt;&lt;span style=&quot;color: #d19a66&quot;&gt;())&lt;br&gt;&lt;/span&gt;&lt;span style=&quot;color: #d19a66&quot;&gt;        &lt;/span&gt;.&lt;span style=&quot;color: #61afef&quot;&gt;eq&lt;/span&gt;&lt;span style=&quot;color: #d19a66&quot;&gt;(&lt;/span&gt;&lt;span style=&quot;color: #e5c07b&quot;&gt;TaskTopicProcess&lt;/span&gt;::&lt;span style=&quot;color: #61afef&quot;&gt;getIsFeedback&lt;/span&gt;, &lt;span style=&quot;color: #d19a66&quot;&gt;1)&lt;/span&gt;.&lt;span style=&quot;color: #61afef&quot;&gt;list&lt;/span&gt;&lt;span style=&quot;color: #d19a66&quot;&gt;()&lt;/span&gt;;&lt;/pre&gt;" style="text;html=1;strokeColor=none;fillColor=none;align=center;verticalAlign=middle;whiteSpace=wrap;rounded=0;" parent="1" vertex="1">
          <mxGeometry x="1720" y="250" width="40" height="20" as="geometry" />
        </mxCell>
        <mxCell id="tXZHfQQ4HI5e9DIyocW6-61" value="" style="edgeStyle=orthogonalEdgeStyle;rounded=0;orthogonalLoop=1;jettySize=auto;html=1;" parent="1" source="tXZHfQQ4HI5e9DIyocW6-52" target="tXZHfQQ4HI5e9DIyocW6-60" edge="1">
          <mxGeometry relative="1" as="geometry" />
        </mxCell>
        <mxCell id="tXZHfQQ4HI5e9DIyocW6-52" value="&lt;pre style=&quot;background-color: #282c34 ; color: #bbbbbb ; font-family: &amp;#34;jetbrains mono&amp;#34; , monospace ; font-size: 10.5pt&quot;&gt;&lt;span style=&quot;color: #e5c07b&quot;&gt;List&lt;/span&gt;&lt;span style=&quot;color: #d19a66&quot;&gt;&amp;lt;&lt;/span&gt;&lt;span style=&quot;color: #e5c07b&quot;&gt;TaskTopicProcess&lt;/span&gt;&lt;span style=&quot;color: #d19a66&quot;&gt;&amp;gt;&lt;/span&gt;&lt;/pre&gt;" style="ellipse;whiteSpace=wrap;html=1;" parent="1" vertex="1">
          <mxGeometry x="1990" y="310" width="120" height="80" as="geometry" />
        </mxCell>
        <mxCell id="tXZHfQQ4HI5e9DIyocW6-53" value="获取相关执行组织" style="text;html=1;strokeColor=none;fillColor=none;align=center;verticalAlign=middle;whiteSpace=wrap;rounded=0;" parent="1" vertex="1">
          <mxGeometry x="1210" y="100" width="40" height="20" as="geometry" />
        </mxCell>
        <mxCell id="tXZHfQQ4HI5e9DIyocW6-54" value="获取对应的主题" style="text;html=1;strokeColor=none;fillColor=none;align=center;verticalAlign=middle;whiteSpace=wrap;rounded=0;" parent="1" vertex="1">
          <mxGeometry x="1700" y="100" width="40" height="20" as="geometry" />
        </mxCell>
        <mxCell id="tXZHfQQ4HI5e9DIyocW6-58" value="不能为null" style="text;html=1;strokeColor=none;fillColor=none;align=center;verticalAlign=middle;whiteSpace=wrap;rounded=0;" parent="1" vertex="1">
          <mxGeometry x="2010" y="100" width="40" height="20" as="geometry" />
        </mxCell>
        <mxCell id="tXZHfQQ4HI5e9DIyocW6-60" value="&lt;pre style=&quot;background-color: #282c34 ; color: #bbbbbb ; font-family: &amp;#34;jetbrains mono&amp;#34; , monospace ; font-size: 10.5pt&quot;&gt;&lt;span style=&quot;color: #e5c07b&quot;&gt;Map&lt;/span&gt;&lt;span style=&quot;color: #d19a66&quot;&gt;&amp;lt;&lt;/span&gt;&lt;span style=&quot;color: #e5c07b&quot;&gt;Integer&lt;/span&gt;, &lt;span style=&quot;color: #e5c07b&quot;&gt;TaskTopicProcess&lt;/span&gt;&lt;span style=&quot;color: #d19a66&quot;&gt;&amp;gt;&lt;/span&gt;&lt;/pre&gt;" style="ellipse;whiteSpace=wrap;html=1;" parent="1" vertex="1">
          <mxGeometry x="1990" y="140" width="120" height="60" as="geometry" />
        </mxCell>
        <mxCell id="tXZHfQQ4HI5e9DIyocW6-63" value="key：组织类型" style="text;html=1;strokeColor=none;fillColor=none;align=center;verticalAlign=middle;whiteSpace=wrap;rounded=0;" parent="1" vertex="1">
          <mxGeometry x="2040" y="250" width="120" height="20" as="geometry" />
        </mxCell>
        <mxCell id="tXZHfQQ4HI5e9DIyocW6-75" value="" style="edgeStyle=orthogonalEdgeStyle;curved=1;rounded=0;orthogonalLoop=1;jettySize=auto;html=1;" parent="1" source="tXZHfQQ4HI5e9DIyocW6-65" target="tXZHfQQ4HI5e9DIyocW6-74" edge="1">
          <mxGeometry relative="1" as="geometry" />
        </mxCell>
        <mxCell id="tyhGIWz0MsalxrCetK2Z-5" style="edgeStyle=orthogonalEdgeStyle;rounded=0;orthogonalLoop=1;jettySize=auto;html=1;entryX=0;entryY=0.613;entryDx=0;entryDy=0;entryPerimeter=0;curved=1;" parent="1" source="tXZHfQQ4HI5e9DIyocW6-65" target="tXZHfQQ4HI5e9DIyocW6-77" edge="1">
          <mxGeometry relative="1" as="geometry">
            <Array as="points">
              <mxPoint x="2360" y="339" />
            </Array>
          </mxGeometry>
        </mxCell>
        <mxCell id="tyhGIWz0MsalxrCetK2Z-8" style="edgeStyle=orthogonalEdgeStyle;curved=1;rounded=0;orthogonalLoop=1;jettySize=auto;html=1;entryX=0.5;entryY=0;entryDx=0;entryDy=0;" parent="1" source="tXZHfQQ4HI5e9DIyocW6-65" target="tXZHfQQ4HI5e9DIyocW6-86" edge="1">
          <mxGeometry relative="1" as="geometry">
            <Array as="points">
              <mxPoint x="2320" y="40" />
              <mxPoint x="2975" y="40" />
            </Array>
          </mxGeometry>
        </mxCell>
        <mxCell id="tXZHfQQ4HI5e9DIyocW6-65" value="&lt;pre style=&quot;background-color: #282c34 ; color: #bbbbbb ; font-family: &amp;#34;jetbrains mono&amp;#34; , monospace ; font-size: 10.5pt&quot;&gt;&lt;span style=&quot;color: #e5c07b&quot;&gt;TaskReformKeyOrg&lt;/span&gt;&lt;/pre&gt;" style="ellipse;whiteSpace=wrap;html=1;" parent="1" vertex="1">
          <mxGeometry x="2260" y="130" width="120" height="80" as="geometry" />
        </mxCell>
        <mxCell id="tXZHfQQ4HI5e9DIyocW6-66" value="找到创建人" style="text;html=1;strokeColor=none;fillColor=none;align=center;verticalAlign=middle;whiteSpace=wrap;rounded=0;" parent="1" vertex="1">
          <mxGeometry x="1940" y="40" width="40" height="20" as="geometry" />
        </mxCell>
        <mxCell id="tXZHfQQ4HI5e9DIyocW6-68" value="&lt;pre style=&quot;background-color: #282c34 ; color: #bbbbbb ; font-family: &amp;#34;jetbrains mono&amp;#34; , monospace ; font-size: 10.5pt&quot;&gt;&lt;span style=&quot;color: #e5c07b&quot;&gt;TaskReformKeyOrg&lt;/span&gt;&lt;/pre&gt;" style="ellipse;whiteSpace=wrap;html=1;" parent="1" vertex="1">
          <mxGeometry x="2140" y="390" width="120" height="80" as="geometry" />
        </mxCell>
        <mxCell id="tyhGIWz0MsalxrCetK2Z-4" style="edgeStyle=orthogonalEdgeStyle;rounded=0;orthogonalLoop=1;jettySize=auto;html=1;" parent="1" source="tXZHfQQ4HI5e9DIyocW6-70" edge="1">
          <mxGeometry relative="1" as="geometry">
            <mxPoint x="1980" y="435" as="targetPoint" />
          </mxGeometry>
        </mxCell>
        <mxCell id="tXZHfQQ4HI5e9DIyocW6-70" value="清单牵头单位" style="text;html=1;strokeColor=none;fillColor=none;align=center;verticalAlign=middle;whiteSpace=wrap;rounded=0;" parent="1" vertex="1">
          <mxGeometry x="1900" y="395" width="40" height="20" as="geometry" />
        </mxCell>
        <mxCell id="tXZHfQQ4HI5e9DIyocW6-71" value="只有七张清单有" style="text;html=1;strokeColor=none;fillColor=none;align=center;verticalAlign=middle;whiteSpace=wrap;rounded=0;" parent="1" vertex="1">
          <mxGeometry x="1965" y="445" width="40" height="20" as="geometry" />
        </mxCell>
        <mxCell id="tXZHfQQ4HI5e9DIyocW6-78" value="" style="edgeStyle=orthogonalEdgeStyle;curved=1;rounded=0;orthogonalLoop=1;jettySize=auto;html=1;" parent="1" source="tXZHfQQ4HI5e9DIyocW6-74" target="tXZHfQQ4HI5e9DIyocW6-77" edge="1">
          <mxGeometry relative="1" as="geometry" />
        </mxCell>
        <mxCell id="tXZHfQQ4HI5e9DIyocW6-83" style="rounded=0;orthogonalLoop=1;jettySize=auto;html=1;exitX=1;exitY=0.5;exitDx=0;exitDy=0;entryX=0;entryY=0.5;entryDx=0;entryDy=0;" parent="1" source="tXZHfQQ4HI5e9DIyocW6-74" target="tXZHfQQ4HI5e9DIyocW6-81" edge="1">
          <mxGeometry relative="1" as="geometry" />
        </mxCell>
        <mxCell id="tXZHfQQ4HI5e9DIyocW6-74" value="&lt;pre style=&quot;background-color: #282c34 ; color: #bbbbbb ; font-family: &amp;#34;jetbrains mono&amp;#34; , monospace ; font-size: 10.5pt&quot;&gt;&lt;span style=&quot;color: #ef596f&quot;&gt;taskInfoService&lt;/span&gt;&lt;/pre&gt;" style="shape=step;perimeter=stepPerimeter;whiteSpace=wrap;html=1;fixedSize=1;" parent="1" vertex="1">
          <mxGeometry x="2460" y="130" width="120" height="80" as="geometry" />
        </mxCell>
        <mxCell id="tXZHfQQ4HI5e9DIyocW6-80" style="edgeStyle=orthogonalEdgeStyle;curved=1;rounded=0;orthogonalLoop=1;jettySize=auto;html=1;entryX=0.5;entryY=1;entryDx=0;entryDy=0;" parent="1" source="tXZHfQQ4HI5e9DIyocW6-77" target="tXZHfQQ4HI5e9DIyocW6-81" edge="1">
          <mxGeometry relative="1" as="geometry">
            <mxPoint x="2720" y="170" as="targetPoint" />
          </mxGeometry>
        </mxCell>
        <mxCell id="tXZHfQQ4HI5e9DIyocW6-77" value="&lt;pre style=&quot;background-color: #282c34 ; color: #bbbbbb ; font-family: &amp;#34;jetbrains mono&amp;#34; , monospace ; font-size: 10.5pt&quot;&gt;&lt;span style=&quot;color: #89ca78&quot;&gt;t_task_info&lt;/span&gt;&lt;/pre&gt;" style="shape=cylinder;whiteSpace=wrap;html=1;boundedLbl=1;backgroundOutline=1;" parent="1" vertex="1">
          <mxGeometry x="2490" y="290" width="60" height="80" as="geometry" />
        </mxCell>
        <mxCell id="tXZHfQQ4HI5e9DIyocW6-79" value="&lt;pre style=&quot;background-color: #282c34 ; color: #bbbbbb ; font-family: &amp;#34;jetbrains mono&amp;#34; , monospace ; font-size: 10.5pt&quot;&gt;&lt;span style=&quot;color: #61afef&quot;&gt;getById&lt;/span&gt;&lt;span style=&quot;color: #d19a66&quot;&gt;(&lt;/span&gt;taskReformKey.&lt;span style=&quot;color: #61afef&quot;&gt;getTaskInfoId&lt;/span&gt;&lt;span style=&quot;color: #d19a66&quot;&gt;())&lt;/span&gt;&lt;/pre&gt;" style="text;html=1;strokeColor=none;fillColor=none;align=center;verticalAlign=middle;whiteSpace=wrap;rounded=0;" parent="1" vertex="1">
          <mxGeometry x="2500" y="240" width="40" height="20" as="geometry" />
        </mxCell>
        <mxCell id="tXZHfQQ4HI5e9DIyocW6-85" style="edgeStyle=orthogonalEdgeStyle;rounded=0;orthogonalLoop=1;jettySize=auto;html=1;entryX=0;entryY=0.5;entryDx=0;entryDy=0;" parent="1" source="tXZHfQQ4HI5e9DIyocW6-81" target="tXZHfQQ4HI5e9DIyocW6-86" edge="1">
          <mxGeometry relative="1" as="geometry">
            <mxPoint x="2930" y="170" as="targetPoint" />
          </mxGeometry>
        </mxCell>
        <mxCell id="tXZHfQQ4HI5e9DIyocW6-81" value="&lt;pre style=&quot;background-color: #282c34 ; color: #bbbbbb ; font-family: &amp;#34;jetbrains mono&amp;#34; , monospace ; font-size: 10.5pt&quot;&gt;&lt;span style=&quot;color: #e5c07b&quot;&gt;TaskInfo&lt;/span&gt;&lt;/pre&gt;" style="ellipse;whiteSpace=wrap;html=1;" parent="1" vertex="1">
          <mxGeometry x="2690" y="130" width="120" height="80" as="geometry" />
        </mxCell>
        <mxCell id="tXZHfQQ4HI5e9DIyocW6-82" value="基本任务" style="text;html=1;strokeColor=none;fillColor=none;align=center;verticalAlign=middle;whiteSpace=wrap;rounded=0;" parent="1" vertex="1">
          <mxGeometry x="2710" y="300" width="80" height="20" as="geometry" />
        </mxCell>
        <mxCell id="tXZHfQQ4HI5e9DIyocW6-84" value="code：yyyyMM..." style="text;html=1;strokeColor=none;fillColor=none;align=center;verticalAlign=middle;whiteSpace=wrap;rounded=0;" parent="1" vertex="1">
          <mxGeometry x="2850" y="140" width="40" height="20" as="geometry" />
        </mxCell>
        <mxCell id="tyhGIWz0MsalxrCetK2Z-16" style="edgeStyle=orthogonalEdgeStyle;rounded=0;orthogonalLoop=1;jettySize=auto;html=1;exitX=1;exitY=1;exitDx=0;exitDy=0;entryX=0.5;entryY=0;entryDx=0;entryDy=0;entryPerimeter=0;" parent="1" source="tXZHfQQ4HI5e9DIyocW6-86" target="tyhGIWz0MsalxrCetK2Z-17" edge="1">
          <mxGeometry relative="1" as="geometry">
            <mxPoint x="3020" y="340" as="targetPoint" />
          </mxGeometry>
        </mxCell>
        <mxCell id="tyhGIWz0MsalxrCetK2Z-25" style="edgeStyle=orthogonalEdgeStyle;curved=1;rounded=0;orthogonalLoop=1;jettySize=auto;html=1;exitX=0;exitY=1;exitDx=0;exitDy=0;entryX=1;entryY=0.5;entryDx=0;entryDy=0;" parent="1" source="tXZHfQQ4HI5e9DIyocW6-86" target="tXZHfQQ4HI5e9DIyocW6-89" edge="1">
          <mxGeometry relative="1" as="geometry">
            <Array as="points">
              <mxPoint x="2933" y="520" />
              <mxPoint x="1150" y="520" />
            </Array>
          </mxGeometry>
        </mxCell>
        <mxCell id="tXZHfQQ4HI5e9DIyocW6-86" value="&lt;pre style=&quot;background-color: #282c34 ; color: #bbbbbb ; font-family: &amp;#34;jetbrains mono&amp;#34; , monospace ; font-size: 10.5pt&quot;&gt;&lt;span style=&quot;color: #e5c07b&quot;&gt;TaskInfo&lt;/span&gt;&lt;/pre&gt;" style="ellipse;whiteSpace=wrap;html=1;" parent="1" vertex="1">
          <mxGeometry x="2915" y="130" width="120" height="80" as="geometry" />
        </mxCell>
        <mxCell id="tXZHfQQ4HI5e9DIyocW6-90" style="edgeStyle=orthogonalEdgeStyle;rounded=0;orthogonalLoop=1;jettySize=auto;html=1;entryX=0.5;entryY=1;entryDx=0;entryDy=0;curved=1;" parent="1" source="tXZHfQQ4HI5e9DIyocW6-89" target="tXZHfQQ4HI5e9DIyocW6-86" edge="1">
          <mxGeometry relative="1" as="geometry">
            <Array as="points">
              <mxPoint x="1090" y="550" />
              <mxPoint x="2975" y="550" />
            </Array>
          </mxGeometry>
        </mxCell>
        <mxCell id="tyhGIWz0MsalxrCetK2Z-26" style="edgeStyle=orthogonalEdgeStyle;curved=1;rounded=0;orthogonalLoop=1;jettySize=auto;html=1;exitX=1;exitY=0.5;exitDx=0;exitDy=0;" parent="1" source="tXZHfQQ4HI5e9DIyocW6-89" edge="1">
          <mxGeometry relative="1" as="geometry">
            <mxPoint x="1250" y="430" as="targetPoint" />
          </mxGeometry>
        </mxCell>
        <mxCell id="tXZHfQQ4HI5e9DIyocW6-89" value="&lt;pre style=&quot;background-color: #282c34 ; color: #bbbbbb ; font-family: &amp;#34;jetbrains mono&amp;#34; , monospace ; font-size: 10.5pt&quot;&gt;&lt;span style=&quot;color: #e5c07b&quot;&gt;TaskReformKey&lt;/span&gt;&lt;/pre&gt;" style="ellipse;whiteSpace=wrap;html=1;" parent="1" vertex="1">
          <mxGeometry x="1030" y="430" width="120" height="80" as="geometry" />
        </mxCell>
        <mxCell id="tXZHfQQ4HI5e9DIyocW6-96" value="属性" style="swimlane;" parent="1" vertex="1">
          <mxGeometry x="2690" y="410" width="200" height="200" as="geometry" />
        </mxCell>
        <mxCell id="tXZHfQQ4HI5e9DIyocW6-97" value="&lt;pre style=&quot;background-color: #282c34 ; color: #bbbbbb ; font-family: &amp;#34;jetbrains mono&amp;#34; , monospace ; font-size: 10.5pt&quot;&gt;&lt;span style=&quot;color: #61afef&quot;&gt;TaskName&lt;/span&gt;&lt;/pre&gt;&lt;pre style=&quot;background-color: #282c34 ; color: #bbbbbb ; font-family: &amp;#34;jetbrains mono&amp;#34; , monospace ; font-size: 10.5pt&quot;&gt;&lt;pre style=&quot;font-family: &amp;#34;jetbrains mono&amp;#34; , monospace ; font-size: 10.5pt&quot;&gt;&lt;span style=&quot;color: #61afef&quot;&gt;Content&lt;/span&gt;&lt;/pre&gt;&lt;pre style=&quot;font-family: &amp;#34;jetbrains mono&amp;#34; , monospace ; font-size: 10.5pt&quot;&gt;&lt;span style=&quot;color: #61afef&quot;&gt;TaskYear&lt;/span&gt;&lt;/pre&gt;&lt;pre style=&quot;font-family: &amp;#34;jetbrains mono&amp;#34; , monospace ; font-size: 10.5pt&quot;&gt;&lt;pre style=&quot;font-family: &amp;#34;jetbrains mono&amp;#34; , monospace ; font-size: 10.5pt&quot;&gt;&lt;span style=&quot;color: #61afef&quot;&gt;TaskCircleType&lt;/span&gt;&lt;/pre&gt;&lt;pre style=&quot;font-family: &amp;#34;jetbrains mono&amp;#34; , monospace ; font-size: 10.5pt&quot;&gt;&lt;pre style=&quot;font-family: &amp;#34;jetbrains mono&amp;#34; , monospace ; font-size: 10.5pt&quot;&gt;&lt;pre style=&quot;font-family: &amp;#34;jetbrains mono&amp;#34; , monospace ; font-size: 10.5pt&quot;&gt;&lt;span style=&quot;color: #61afef&quot;&gt;EndTime&lt;/span&gt;&lt;/pre&gt;&lt;/pre&gt;&lt;/pre&gt;&lt;/pre&gt;&lt;/pre&gt;" style="text;html=1;align=center;verticalAlign=middle;resizable=0;points=[];autosize=1;" parent="tXZHfQQ4HI5e9DIyocW6-96" vertex="1">
          <mxGeometry x="10" y="30" width="110" height="160" as="geometry" />
        </mxCell>
        <mxCell id="tyhGIWz0MsalxrCetK2Z-1" value="一个任务就一个，为什么取的是列表" style="text;html=1;strokeColor=none;fillColor=none;align=center;verticalAlign=middle;whiteSpace=wrap;rounded=0;" parent="1" vertex="1">
          <mxGeometry x="740" y="110" width="40" height="20" as="geometry" />
        </mxCell>
        <mxCell id="tyhGIWz0MsalxrCetK2Z-2" value="推送" style="text;html=1;strokeColor=none;fillColor=none;align=center;verticalAlign=middle;whiteSpace=wrap;rounded=0;" parent="1" vertex="1">
          <mxGeometry x="90" y="80" width="40" height="20" as="geometry" />
        </mxCell>
        <mxCell id="tyhGIWz0MsalxrCetK2Z-6" value="&lt;pre style=&quot;background-color: #282c34 ; color: #bbbbbb ; font-family: &amp;#34;jetbrains mono&amp;#34; , monospace ; font-size: 10.5pt&quot;&gt;&lt;span style=&quot;color: #61afef&quot;&gt;TaskInfoId&lt;/span&gt;&lt;/pre&gt;" style="text;html=1;strokeColor=none;fillColor=none;align=center;verticalAlign=middle;whiteSpace=wrap;rounded=0;" parent="1" vertex="1">
          <mxGeometry x="2400" y="140" width="40" height="20" as="geometry" />
        </mxCell>
        <mxCell id="tyhGIWz0MsalxrCetK2Z-11" value="属性" style="swimlane;" parent="1" vertex="1">
          <mxGeometry x="2680" y="-160" width="200" height="200" as="geometry" />
        </mxCell>
        <mxCell id="tyhGIWz0MsalxrCetK2Z-12" value="&lt;pre style=&quot;background-color: #282c34 ; color: #bbbbbb ; font-family: &amp;#34;jetbrains mono&amp;#34; , monospace ; font-size: 10.5pt&quot;&gt;&lt;span style=&quot;color: #61afef&quot;&gt;UserId&lt;/span&gt;&lt;/pre&gt;&lt;pre style=&quot;background-color: #282c34 ; color: #bbbbbb ; font-family: &amp;#34;jetbrains mono&amp;#34; , monospace ; font-size: 10.5pt&quot;&gt;&lt;pre style=&quot;font-family: &amp;#34;jetbrains mono&amp;#34; , monospace ; font-size: 10.5pt&quot;&gt;&lt;span style=&quot;color: #61afef&quot;&gt;UserName&lt;/span&gt;&lt;/pre&gt;&lt;pre style=&quot;font-family: &amp;#34;jetbrains mono&amp;#34; , monospace ; font-size: 10.5pt&quot;&gt;&lt;span style=&quot;color: #61afef&quot;&gt;OrgId&lt;/span&gt;&lt;/pre&gt;&lt;pre style=&quot;font-family: &amp;#34;jetbrains mono&amp;#34; , monospace ; font-size: 10.5pt&quot;&gt;&lt;span style=&quot;color: #61afef&quot;&gt;OrgName&lt;/span&gt;&lt;/pre&gt;&lt;/pre&gt;" style="text;html=1;strokeColor=none;fillColor=none;align=center;verticalAlign=middle;whiteSpace=wrap;rounded=0;" parent="tyhGIWz0MsalxrCetK2Z-11" vertex="1">
          <mxGeometry x="30" y="90" width="40" height="20" as="geometry" />
        </mxCell>
        <mxCell id="tyhGIWz0MsalxrCetK2Z-14" style="edgeStyle=elbowEdgeStyle;rounded=0;orthogonalLoop=1;jettySize=auto;html=1;entryX=1;entryY=0;entryDx=0;entryDy=0;" parent="1" source="tyhGIWz0MsalxrCetK2Z-13" target="tXZHfQQ4HI5e9DIyocW6-86" edge="1">
          <mxGeometry relative="1" as="geometry" />
        </mxCell>
        <mxCell id="tyhGIWz0MsalxrCetK2Z-13" value="固定属性" style="triangle;whiteSpace=wrap;html=1;" parent="1" vertex="1">
          <mxGeometry x="2960" y="-90" width="60" height="80" as="geometry" />
        </mxCell>
        <mxCell id="tyhGIWz0MsalxrCetK2Z-15" value="&lt;pre style=&quot;background-color: #282c34 ; color: #bbbbbb ; font-family: &amp;#34;jetbrains mono&amp;#34; , monospace ; font-size: 10.5pt&quot;&gt;&lt;span style=&quot;color: #61afef&quot;&gt;UserType&lt;/span&gt;(&lt;span style=&quot;color: #d19a66&quot;&gt;1&lt;/span&gt;)&lt;/pre&gt;&lt;pre style=&quot;background-color: rgb(40 , 44 , 52) ; font-family: &amp;#34;jetbrains mono&amp;#34; , monospace ; font-size: 10.5pt&quot;&gt;&lt;pre style=&quot;color: rgb(187 , 187 , 187) ; font-family: &amp;#34;jetbrains mono&amp;#34; , monospace ; font-size: 10.5pt&quot;&gt;&lt;span style=&quot;color: #61afef&quot;&gt;ComeTime&lt;/span&gt;(&lt;span style=&quot;color: #d55fde ; font-style: italic&quot;&gt;new &lt;/span&gt;&lt;span style=&quot;color: #e5c07b&quot;&gt;Date&lt;/span&gt;())&lt;/pre&gt;&lt;pre style=&quot;font-family: &amp;#34;jetbrains mono&amp;#34; , monospace ; font-size: 10.5pt&quot;&gt;&lt;pre style=&quot;font-family: &amp;#34;jetbrains mono&amp;#34; , monospace ; font-size: 10.5pt&quot;&gt;&lt;span style=&quot;color: rgb(97 , 175 , 239)&quot;&gt;TaskStatus&lt;/span&gt;&lt;font color=&quot;#bbbbbb&quot;&gt;(&lt;/font&gt;&lt;font color=&quot;#e5c07b&quot;&gt;1&lt;/font&gt;&lt;font color=&quot;#bbbbbb&quot;&gt;)：未提交&lt;/font&gt;&lt;/pre&gt;&lt;pre style=&quot;font-family: &amp;#34;jetbrains mono&amp;#34; , monospace ; font-size: 10.5pt&quot;&gt;&lt;pre style=&quot;color: rgb(187 , 187 , 187) ; font-family: &amp;#34;jetbrains mono&amp;#34; , monospace ; font-size: 10.5pt&quot;&gt;&lt;span style=&quot;color: #61afef&quot;&gt;sTaskWorkType（2）：试点任务、反馈任务&lt;/span&gt;&lt;/pre&gt;&lt;/pre&gt;&lt;/pre&gt;&lt;/pre&gt;" style="text;html=1;strokeColor=none;fillColor=none;align=center;verticalAlign=middle;whiteSpace=wrap;rounded=0;" parent="1" vertex="1">
          <mxGeometry x="3130" y="20" width="40" height="20" as="geometry" />
        </mxCell>
        <mxCell id="tyhGIWz0MsalxrCetK2Z-17" value="&lt;pre style=&quot;background-color: #282c34 ; color: #bbbbbb ; font-family: &amp;#34;jetbrains mono&amp;#34; , monospace ; font-size: 10.5pt&quot;&gt;&lt;span style=&quot;color: #89ca78&quot;&gt;t_task_info&lt;/span&gt;&lt;/pre&gt;" style="shape=cylinder3;whiteSpace=wrap;html=1;boundedLbl=1;backgroundOutline=1;size=15;" parent="1" vertex="1">
          <mxGeometry x="2990" y="320" width="60" height="80" as="geometry" />
        </mxCell>
        <mxCell id="tyhGIWz0MsalxrCetK2Z-22" value="&lt;pre style=&quot;background-color: #282c34 ; color: #bbbbbb ; font-family: &amp;#34;jetbrains mono&amp;#34; , monospace ; font-size: 10.5pt&quot;&gt;&lt;span style=&quot;color: #61afef&quot;&gt;setFeedbackTaskInfoId&lt;/span&gt;(taskInfo.&lt;span style=&quot;color: #61afef&quot;&gt;getId&lt;/span&gt;())&lt;/pre&gt;" style="text;html=1;strokeColor=none;fillColor=none;align=center;verticalAlign=middle;whiteSpace=wrap;rounded=0;" parent="1" vertex="1">
          <mxGeometry x="1340" y="480" width="40" height="20" as="geometry" />
        </mxCell>
        <mxCell id="tyhGIWz0MsalxrCetK2Z-27" value="&lt;pre style=&quot;background-color: rgb(40 , 44 , 52) ; color: rgb(187 , 187 , 187) ; font-family: &amp;#34;jetbrains mono&amp;#34; , monospace ; font-size: 10.5pt&quot;&gt;&lt;span style=&quot;color: rgb(137 , 202 , 120)&quot;&gt;t_task_reform_key&lt;/span&gt;&lt;/pre&gt;" style="shape=cylinder3;whiteSpace=wrap;html=1;boundedLbl=1;backgroundOutline=1;size=15;" parent="1" vertex="1">
          <mxGeometry x="1250" y="390" width="60" height="80" as="geometry" />
        </mxCell>
        <mxCell id="tyhGIWz0MsalxrCetK2Z-28" value="更新" style="text;html=1;strokeColor=none;fillColor=none;align=center;verticalAlign=middle;whiteSpace=wrap;rounded=0;" parent="1" vertex="1">
          <mxGeometry x="1170" y="420" width="40" height="20" as="geometry" />
        </mxCell>
      </root>
    </mxGraphModel>
  </diagram>
</mxfile>
